<svg width="16" height="16" viewBox="0 0 16 16" fill="none" xmlns="http://www.w3.org/2000/svg">
<path d="M6.55577 11.5223C6.43189 11.5257 6.31122 11.4826 6.21739 11.4015C6.12357 11.3204 6.06334 11.2071 6.04852 11.0839V7.09815C6.04852 6.96601 6.10091 6.83929 6.19417 6.74586C6.28744 6.65242 6.41393 6.59993 6.54582 6.59993C6.67771 6.59993 6.8042 6.65242 6.89747 6.74586C6.99073 6.83929 7.04312 6.96601 7.04312 7.09815V11.0839C7.03077 11.2045 6.97402 11.3163 6.88393 11.3973C6.79383 11.4784 6.67685 11.5229 6.55577 11.5223ZM10.027 11.0839V7.09815C10.027 6.96601 9.97456 6.83929 9.8813 6.74586C9.78803 6.65242 9.66154 6.59993 9.52965 6.59993C9.39776 6.59993 9.27126 6.65242 9.178 6.74586C9.08474 6.83929 9.03234 6.96601 9.03234 7.09815V11.0839C9.03233 11.1488 9.04526 11.2131 9.07037 11.273C9.09548 11.3329 9.13227 11.3872 9.17859 11.4327C9.2249 11.4782 9.27981 11.5139 9.34009 11.5379C9.40037 11.5618 9.46482 11.5734 9.52965 11.5721C9.65984 11.5721 9.78484 11.521 9.87783 11.4297C9.97081 11.3384 10.0244 11.2143 10.027 11.0839ZM15 4.9359C14.9974 5.13237 14.9176 5.3199 14.778 5.4579C14.6384 5.59591 14.4502 5.67327 14.254 5.67325H13.7567L12.1853 14.1927C12.1408 14.423 12.0167 14.6302 11.8348 14.7779C11.6528 14.9255 11.4247 15.0041 11.1906 14.9998H4.90471C4.67062 15.0041 4.44253 14.9255 4.2606 14.7779C4.07867 14.6302 3.95455 14.423 3.91011 14.1927L2.34857 5.62343H1.82143C1.71826 5.63551 1.61372 5.62557 1.51467 5.59428C1.41561 5.56299 1.32429 5.51105 1.2467 5.44187C1.16912 5.3727 1.10702 5.28785 1.0645 5.19292C1.02198 5.09798 1 4.99511 1 4.89106C1 4.787 1.02198 4.68413 1.0645 4.5892C1.10702 4.49426 1.16912 4.40942 1.2467 4.34024C1.32429 4.27107 1.41561 4.21913 1.51467 4.18783C1.61372 4.15654 1.71826 4.14661 1.82143 4.15868H4.86493C4.92126 3.33616 5.27417 2.56222 5.85791 1.98108C6.44165 1.39994 7.21638 1.05126 8.03773 1C8.86085 1.04892 9.63798 1.39658 10.2238 1.97795C10.8096 2.55931 11.1639 3.33456 11.2205 4.15868H14.2043C14.305 4.15047 14.4064 4.16312 14.502 4.19585C14.5976 4.22858 14.6855 4.28069 14.7601 4.34893C14.8348 4.41717 14.8946 4.50008 14.9359 4.59249C14.9771 4.68491 14.999 4.78484 15 4.88608V4.9359ZM12.235 5.69318H3.87032L5.3125 13.4753H10.7928L12.235 5.69318ZM6.36679 4.15868H9.73852C9.6963 3.72209 9.50329 3.31395 9.19279 3.0047C8.88228 2.69545 8.47377 2.50448 8.03773 2.46475C7.60705 2.51101 7.20553 2.70486 6.90106 3.01351C6.59659 3.32217 6.40787 3.72669 6.36679 4.15868Z" fill="#757986"/>
</svg>
